Coordinates
version=1
nRows=17
nColumns=34
inDegrees=yes

Units are S.I. units (second, meters, Newtons, ...)
If the header above contains a line with 'inDegrees', this indicates whether rotational values are in degrees (yes) or radians (no).

endheader
time	pelvis_tilt	pelvis_list	pelvis_rotation	pelvis_tx	pelvis_ty	pelvis_tz	hip_flexion_r	hip_adduction_r	hip_rotation_r	knee_angle_r	ankle_angle_r	subtalar_angle_r	mtp_angle_r	hip_flexion_l	hip_adduction_l	hip_rotation_l	knee_angle_l	ankle_angle_l	subtalar_angle_l	mtp_angle_l	lumbar_extension	lumbar_bending	lumbar_rotation	arm_flex_r	arm_add_r	arm_rot_r	elbow_flex_r	pro_sup_r	arm_flex_l	arm_add_l	arm_rot_l	elbow_flex_l	pro_sup_l
      1.95000000	    -13.88761119	      0.88905858	     -0.42752420	      0.59871462	      0.90062871	     -0.16278048	     20.49421934	     -5.81276903	     -6.25465783	     13.34737844	      4.30448688	     -1.89393462	      0.00000000	     20.80674241	     -5.64898290	     -6.70803479	     11.34754285	      5.52360088	      8.32344561	      0.00000000	      2.06505887	     -0.24292520	     -1.81153923	    180.09531722	    -21.47655033	    112.98358622	     14.46690131	     33.71885047	    184.72604421	    -24.46150640	    122.93027217	     10.22904049	     29.80618280
      1.96666670	    -14.61985820	      1.02046234	     -0.48173245	      0.59428598	      0.89719747	     -0.16227060	     21.92801141	     -5.88916170	     -5.70144745	     14.11229329	      4.40888715	     -2.60104265	      0.00000000	     22.16052578	     -5.63140330	     -6.50741791	     12.01046335	      5.45038886	      8.00226970	      0.00000000	      2.00564647	     -0.51943931	     -1.92002618	    180.87442439	    -21.54099802	    112.33533939	     13.87691807	     33.37804242	    185.66091496	    -24.03069887	    121.77725731	      9.81183457	     29.48789267
      1.98333330	    -14.51978621	      1.03705904	     -0.42295891	      0.59401211	      0.89864115	     -0.16310897	     22.18038472	     -5.95103455	     -5.73168685	     14.51173147	      4.43292895	     -2.71127300	      0.00000000	     22.46065333	     -5.66139182	     -6.49286088	     12.59760016	      5.34375216	      7.98341841	      0.00000000	      1.61061818	     -0.54069949	     -1.85596407	    180.83284187	    -21.54686580	    112.27433821	     13.83343981	     33.34520737	    185.68814073	    -24.01434621	    121.67703881	      9.80331952	     29.46287891
      2.00000000	    -14.88476103	      1.05319147	     -0.31261233	      0.59179852	      0.89587935	     -0.16183158	     23.09042913	     -5.97417788	     -5.58407750	     15.30721469	      5.31719055	     -3.37397928	      0.00000000	     23.46917984	     -5.72169005	     -6.34598098	     13.46540724	      5.65103739	      7.69506851	      0.00000000	      1.33018477	     -0.64002846	     -1.90047235	    181.79917825	    -21.51216550	    111.81512154	     13.27848195	     33.14824294	    186.44218747	    -23.72303675	    121.10503140	      9.58204051	     29.31640792
      2.01666670	    -15.20060325	      1.15072543	     -0.27550701	      0.58776636	      0.89538803	     -0.16234038	     24.03469066	     -6.05841036	     -5.03071967	     16.08322345	      5.80304983	     -3.62680729	      0.00000000	     24.41750348	     -5.64914579	     -6.07874628	     14.22983702	      5.97330367	      7.50950671	      0.00000000	      0.97851780	     -0.74550055	     -1.93403995	    182.56093326	    -21.34295131	    111.33066208	     12.84127722	     32.94917215	    187.26629466	    -23.57103472	    120.46240456	      9.30352164	     29.15248836
      2.03333330	    -15.60462508	      1.13956871	     -0.11273301	      0.58509569	      0.89207242	     -0.16239747	     25.06522981	     -6.13369789	     -4.72830215	     16.85716976	      5.89871673	     -3.91642816	      0.00000000	     25.48005771	     -5.65857434	     -5.84905800	     15.09223165	      6.04181855	      7.29454832	      0.00000000	      0.78980978	     -0.73633781	     -1.98407049	    183.45267968	    -21.31746996	    110.78789672	     12.32498434	     32.71857970	    188.04847074	    -23.54760765	    119.75233999	      9.18487797	     28.98687048
      2.05000000	    -15.86112794	      1.14413411	     -0.15969605	      0.58495544	      0.89010324	     -0.16255011	     25.88933744	     -6.13988122	     -4.29694523	     17.64249589	      6.22333594	     -4.19370380	      0.00000000	     26.26961163	     -5.72117964	     -5.54399183	     15.99737089	      6.33478228	      7.04666422	      0.00000000	      0.67290248	     -0.70799598	     -1.86600899	    183.99302195	    -21.25757519	    110.35307790	     12.03567585	     32.53010851	    188.71443176	    -23.54592342	    119.17724048	      9.29390413	     28.87722786
      2.06666670	    -16.12831441	      1.08139974	     -0.00348156	      0.58066022	      0.88747724	     -0.16322357	     26.90530143	     -6.19906050	     -4.07736661	     18.60342192	      6.59674785	     -4.57142942	      0.00000000	     27.25370960	     -5.77450498	     -5.25424988	     17.02228724	      6.72001970	      6.79615131	      0.00000000	      0.44186525	     -0.58872755	     -1.92604332	    184.78131474	    -21.21214783	    109.92548312	     11.73400456	     32.36005765	    189.34847818	    -23.66750945	    118.63123882	      9.29679643	     28.78331236
      2.08333330	    -16.47526870	      1.05271617	      0.02405815	      0.57757242	      0.88625611	     -0.16258959	     27.99690071	     -6.20713027	     -3.87766238	     19.50388617	      6.89727535	     -4.95282468	      0.00000000	     28.42739644	     -5.86163810	     -4.85236996	     18.24845782	      7.10018695	      6.46342339	      0.00000000	      0.14288972	     -0.53201713	     -2.03623810	    185.67890455	    -21.16862579	    109.44960266	     11.43280754	     32.17923960	    190.21645824	    -23.76483748	    117.98583469	      9.19831046	     28.67885848
      2.10000000	    -16.77136576	      1.04686499	      0.09365608	      0.57400124	      0.88402063	     -0.16313972	     29.07175999	     -6.26498240	     -3.64765187	     20.59785686	      7.24833649	     -5.24810562	      0.00000000	     29.51504350	     -5.91833313	     -4.60999958	     19.26008845	      7.49457699	      6.26694704	      0.00000000	     -0.21445436	     -0.47164925	     -2.17605712	    186.50914103	    -21.06705870	    108.98504828	     11.14732142	     32.01576987	    190.98553291	    -23.84277422	    117.38643333	      9.09499615	     28.59026228
      2.11666670	    -17.10981150	      1.04476043	      0.09208138	      0.57134207	      0.87951497	     -0.16270877	     30.29344810	     -6.28482898	     -3.41709116	     21.88895255	      7.79129573	     -5.67414053	      0.00000000	     30.74766342	     -6.01086237	     -4.43461484	     20.51163116	      7.88753152	      5.91120293	      0.00000000	     -0.47447207	     -0.39595560	     -2.34011624	    187.31209458	    -21.01414422	    108.49726968	     10.98488495	     31.85099293	    191.92111860	    -23.93134332	    116.72064986	      8.95001023	     28.49718027
      2.13333330	    -17.48708941	      1.10719246	     -0.17659041	      0.56638839	      0.87485870	     -0.16288376	     31.65486878	     -6.31649700	     -3.18838273	     23.15537631	      8.44662814	     -6.17802381	      0.00000000	     32.00629848	     -6.11254002	     -4.29247597	     21.80972906	      8.72397080	      5.53051499	      0.00000000	     -0.67033463	     -0.41135202	     -2.32060249	    187.88813081	    -20.83309749	    108.06965928	     10.82967396	     31.71452365	    192.93930304	    -23.89762538	    116.17990053	      8.82341956	     28.43432707
      2.15000000	    -18.42003522	      1.14434073	     -0.29295013	      0.56352577	      0.87003462	     -0.16236502	     33.76474192	     -6.28157529	     -2.74527250	     24.80829038	      8.65366775	     -6.99714007	      0.00000000	     33.96083121	     -6.24079253	     -4.01926702	     23.19195752	      9.33880630	      5.27428682	      0.00000000	      0.01459248	     -0.30473436	     -3.08999803	    187.28514656	    -20.74505393	    105.17944217	     10.77493728	     30.85263041	    193.79595625	    -24.19787046	    112.85029830	      9.98605438	     28.37725020
      2.16666670	    -18.76418259	      1.21883818	     -0.50681329	      0.55955280	      0.86848022	     -0.16266412	     35.26259393	     -6.33683860	     -2.48778912	     26.31695298	      9.29525801	     -7.15786217	      0.00000000	     35.35831255	     -6.32094931	     -3.91484573	     24.63727325	     10.21387031	      4.94852970	      0.00000000	     -0.55445224	     -0.25353024	     -2.99815490	    188.44631623	    -20.61361007	    104.79787077	     10.57053242	     30.78838295	    195.02049152	    -24.18602938	    112.42914785	      9.55054164	     28.39038102
      2.18333330	    -19.30006902	      1.27253430	     -0.58809999	      0.55615088	      0.86945084	     -0.16256467	     36.72133734	     -6.36739120	     -2.22246347	     27.43768094	      9.37540973	     -7.14107871	      0.00000000	     36.74987844	     -6.37872036	     -3.77439217	     25.59223527	      9.94700050	      5.02736769	      0.00000000	     -0.92189575	     -0.22578591	     -3.25227949	    189.47863438	    -20.69025929	    104.39008095	     10.46173967	     30.73582653	    196.26333909	    -24.19380226	    111.95481325	      9.23589754	     28.40787367
      2.20000000	    -19.63498259	      1.13649004	     -0.55907891	      0.55533976	      0.86774831	     -0.16224768	     37.77285574	     -6.27151651	     -2.05434130	     28.35624902	      9.66391744	     -7.13526358	      0.00000000	     37.74764519	     -6.55062203	     -3.50750228	     26.60854044	     10.44904794	      4.94015822	      0.00000000	     -1.30080213	     -0.00992329	     -3.46112939	    190.32419909	    -20.84472028	    104.09158386	     10.53758709	     30.71987103	    197.18896747	    -24.35789386	    111.65313300	      9.28467232	     28.47326866
      2.21666670	    -19.99947072	      1.07887175	     -0.44120187	      0.55156631	      0.86457292	     -0.16199654	     38.84775554	     -6.27665299	     -1.91409347	     29.29969292	      9.80552610	     -7.19779178	      0.00000000	     38.81046527	     -6.62648685	     -3.28638621	     27.32510910	     10.49821713	      5.11642407	      0.00000000	     -1.76949570	      0.08005149	     -3.73104537	    191.38109634	    -21.02592946	    103.80569195	     10.60967322	     30.72041607	    198.29012764	    -24.51509310	    111.39202112	      9.47749047	     28.56811536
